<?xml version="1.0" encoding="UTF-8"?>
<svg width="394px" height="450px" viewBox="0 0 394 450" version="1.1" xmlns="http://www.w3.org/2000/svg" xmlns:xlink="http://www.w3.org/1999/xlink">
    <title>Path</title>
    <defs>
        <linearGradient x1="32.1162963%" y1="11.5626463%" x2="68.2802528%" y2="88.6110878%" id="linearGradient-1">
            <stop stop-color="#1867C0" offset="0%"></stop>
            <stop stop-color="#1867C0" stop-opacity="0.736150568" offset="100%"></stop>
        </linearGradient>
    </defs>
    <g id="Page-1" stroke="none" stroke-width="1" fill="none" fill-rule="evenodd">
        <path d="M7.61479599,105.692641 L190.577163,2.19877643 C195.179787,-0.404728178 200.813227,-0.392441563 205.404451,2.23111496 L386.442084,105.681191 C391.115709,108.351834 394,113.321985 394,118.704838 L394,135.342662 C394,140.700083 391.142669,145.650792 386.503788,148.330855 L106.020131,310.377244 C98.8469495,314.521472 96.3914975,323.696044 100.535725,330.869225 C101.816108,333.085421 103.642277,334.93713 105.840478,336.248168 L189.466291,386.123775 C194.120092,388.899367 199.90908,388.949252 204.610022,386.254272 L331.827462,313.322404 C336.490843,310.648957 339.367173,305.684532 339.367173,300.309177 L339.367173,288.5 C339.367173,281.886618 334.005967,276.525412 327.392584,276.525412 C325.331743,276.525412 323.305781,277.057279 321.51069,278.06956 L215.605024,337.791481 C210.745126,340.532056 204.765711,340.348794 200.082768,337.315743 L177.089128,322.423212 C170.135873,317.919725 168.149944,308.632201 172.653431,301.678946 C173.961655,299.659086 175.736657,297.983637 177.828584,296.794047 L371.585171,186.612924 C378.786514,182.517827 387.944087,185.035936 392.039184,192.237279 C393.324307,194.497203 394,197.052338 394,199.652107 L394,329.349712 C394,334.703354 391.146665,339.651168 386.512946,342.33261 L204.512946,447.652407 C199.865354,450.341876 194.134646,450.341876 189.487054,447.652407 L7.48705393,342.33261 C2.85333475,339.651168 1.84192004e-14,334.703354 0,329.349712 L0,317.666384 C-2.92236682e-15,312.304115 2.86245979,307.349696 7.50796257,304.671409 L298.664767,136.809779 C303.600972,133.963892 305.295509,127.65526 302.449622,122.719055 C301.519324,121.105448 300.169545,119.773788 298.543514,118.865381 L289.992244,114.088081 C285.444777,111.547568 279.904877,111.548161 275.357954,114.089648 L22.3185468,255.525127 C15.0872248,259.567049 5.94845504,256.981529 1.90653323,249.750207 C0.656373136,247.513571 -8.56799146e-15,244.993973 0,242.431661 L0,215.667957 C-2.97235159e-14,210.304846 2.86335209,205.349782 7.51000623,202.671804 L210.808369,85.5060958 C215.622734,82.7314619 217.276263,76.5793625 214.501629,71.7649971 C213.68275,70.3441304 212.528964,69.1449689 211.140726,68.2719164 L204.679217,64.2083224 C199.957872,61.2391047 193.978942,61.134626 189.15674,63.9370751 L22.5369825,160.769072 C15.3744242,164.931633 6.19360156,162.499654 2.03104108,155.337096 C0.700741305,153.048036 -3.22848299e-15,150.447658 0,147.800113 L0,118.748626 C2.89063905e-15,113.342377 2.90920152,108.354391 7.61479599,105.692641 Z" id="Path" fill="url(#linearGradient-1)"></path>
    </g>
</svg>