<?xml version="1.0" encoding="UTF-8"?>
<svg width="434px" height="496px" viewBox="0 0 434 496" version="1.1" xmlns="http://www.w3.org/2000/svg" xmlns:xlink="http://www.w3.org/1999/xlink">
    <title>Path</title>
    <defs>
        <linearGradient x1="28.8292582%" y1="13.8150357%" x2="67.8886104%" y2="88.3783187%" id="linearGradient-1">
            <stop stop-color="#1867C0" offset="0%"></stop>
            <stop stop-color="#155AA8" offset="100%"></stop>
        </linearGradient>
    </defs>
    <g id="Page-1" stroke="none" stroke-width="1" fill="none" fill-rule="evenodd">
        <path d="M7.61479599,117.040658 L210.638837,2.19877643 C215.241461,-0.404728178 220.874901,-0.392441563 225.466125,2.23111496 L426.362789,117.029209 C431.036414,119.699851 433.920705,124.670003 433.920705,130.052856 L433.920705,150.135613 C433.920705,155.493035 431.063374,160.443743 426.424493,163.123807 L114.520524,343.322939 C107.347343,347.467167 104.891891,356.64174 109.036119,363.814921 C110.316502,366.031117 112.142671,367.882826 114.340871,369.193863 L209.426644,425.90435 C214.080445,428.679942 219.869433,428.729827 224.570374,426.034847 L366.212682,344.833417 C370.876063,342.15997 373.752393,337.195545 373.752393,331.82019 L373.752393,317.933921 C373.752393,310.65046 367.847981,304.746048 360.56452,304.746048 C358.294872,304.746048 356.063636,305.331805 354.086663,306.446652 L236.649515,372.671362 C231.789618,375.411937 225.810203,375.228675 221.12726,372.195625 L192.932184,353.934225 C185.978929,349.430738 183.993,340.143214 188.496487,333.189959 C189.804711,331.170099 191.579713,329.49465 193.67164,328.30506 L411.505876,204.432003 C418.707218,200.336906 427.864792,202.855016 431.959889,210.056358 C433.245012,212.316282 433.920705,214.871418 433.920705,217.471187 L433.920705,363.799051 C433.920705,369.152693 431.06737,374.100508 426.433651,376.781949 L224.473298,493.652407 C219.825707,496.341876 214.094998,496.341876 209.447406,493.652407 L7.48705393,376.781949 C2.85333475,374.100508 1.13137731e-14,369.152693 0,363.799051 L0,349.177397 C1.53305231e-14,343.815129 2.86245979,338.860709 7.50796257,336.182422 L328.925954,150.874206 C334.362304,147.739969 336.228534,140.792137 333.094297,135.355787 C332.06974,133.578688 330.583199,132.112102 328.792416,131.111653 L318.633289,125.436099 C314.085822,122.895586 308.545922,122.896179 303.998999,125.437665 L22.3185468,282.881956 C15.0872248,286.923877 5.94845504,284.338358 1.90653323,277.107036 C0.656373136,274.870399 -1.92261325e-14,272.350801 0,269.788489 L0,236.844168 C-2.61708022e-14,231.481057 2.86335209,226.525993 7.51000623,223.848015 L232.167807,94.3723522 C237.469972,91.316588 239.291039,84.5411481 236.235275,79.2389836 C235.333425,77.6741524 234.062736,76.35349 232.533839,75.3919784 L224.639569,70.4273321 C219.918225,67.4581143 213.939294,67.3536356 209.117093,70.1560848 L22.5369825,178.588151 C15.3744242,182.750712 6.19360156,180.318733 2.03104108,173.156175 C0.700741305,170.867115 9.20601489e-15,168.266737 0,165.619193 L0,130.096644 C9.99606641e-15,124.690394 2.90920152,119.702409 7.61479599,117.040658 Z" id="Path" fill="url(#linearGradient-1)"></path>
    </g>
</svg>